<svg width="108" height="108" viewBox="0 0 108 108" fill="none" xmlns="http://www.w3.org/2000/svg">
  <rect x="4" y="8" width="100" height="92" rx="14" fill="#0F1C30"/>
  <rect x="12" y="14" width="84" height="80" rx="10" fill="#173252"/>

  <path d="M26 34H44L48 38V70H26V34Z" fill="#2FD8FF"/>
  <path d="M62 34H80L84 38V70H62V34Z" fill="#2FD8FF"/>
  <rect x="31" y="45" width="12" height="3" fill="#0B1728"/>
  <rect x="31" y="51" width="12" height="3" fill="#0B1728"/>
  <rect x="67" y="45" width="12" height="3" fill="#0B1728"/>
  <rect x="67" y="51" width="12" height="3" fill="#0B1728"/>

  <path d="M26 18C41 3 67 3 82 18" stroke="#67F7D8" stroke-width="3.6" stroke-linecap="round"/>
  <path d="M33 24C44 13 64 13 75 24" stroke="#67F7D8" stroke-width="3.6" stroke-linecap="round"/>
  <path d="M40 30C47 23 61 23 68 30" stroke="#67F7D8" stroke-width="3.6" stroke-linecap="round"/>
  <circle cx="54" cy="34" r="2" fill="#67F7D8"/>

  <path d="M40 52H66M66 52L62 48M66 52L62 56" stroke="#E9F5FF" stroke-width="3" stroke-linecap="round" stroke-linejoin="round"/>
  <path d="M68 60H42M42 60L46 56M42 60L46 64" stroke="#E9F5FF" stroke-width="3" stroke-linecap="round" stroke-linejoin="round"/>
</svg>
